<svg version="1.1" xmlns="http://www.w3.org/2000/svg" xmlns:xlink="http://www.w3.org/1999/xlink" width="863.29153" height="437.93687" viewBox="0,0,863.29153,437.93687"><g transform="translate(112.52191,86.13687)"><g data-paper-data="{&quot;isPaintingLayer&quot;:true}" fill-rule="nonzero" stroke="none" stroke-linecap="butt" stroke-linejoin="miter" stroke-miterlimit="10" stroke-dasharray="" stroke-dashoffset="0" style="mix-blend-mode: normal"><text transform="translate(180,54.06941) scale(1.5754,1.5754)" font-size="40" xml:space="preserve" fill="#2961cc" fill-rule="nonzero" stroke="none" stroke-width="1" stroke-linecap="butt" stroke-linejoin="miter" stroke-miterlimit="10" stroke-dasharray="" stroke-dashoffset="0" font-family="Sans Serif" font-weight="normal" text-anchor="start" style="mix-blend-mode: normal"><tspan x="0" dy="0">CalcuLan</tspan></text><path d="M133.44444,-24.01578c0,58.54218 -164.11695,156 -223.47222,156c-59.35527,0 17.52778,-125.45782 17.52778,-184c0,-58.54218 124.11695,-24 183.47222,-24c59.35527,0 22.47222,-6.54218 22.47222,52z" fill="#9966ff" stroke-width="0"/><path d="M527.27549,-76.01578c59.35527,0 183.47222,-34.54218 183.47222,24c0,58.54219 76.88305,184 17.52778,184c-59.35527,0 -223.47222,-97.45781 -223.47222,-156c0,-58.54218 -36.88305,-52 22.47222,-52z" data-paper-data="{&quot;index&quot;:null}" fill="#9966ff" stroke-width="0"/><text transform="translate(23,345.55) scale(0.5,0.5)" font-size="40" xml:space="preserve" fill="#000000" fill-rule="nonzero" stroke="none" stroke-width="1" stroke-linecap="butt" stroke-linejoin="miter" stroke-miterlimit="10" stroke-dasharray="" stroke-dashoffset="0" font-family="Sans Serif" font-weight="normal" text-anchor="start" style="mix-blend-mode: normal"><tspan x="0" dy="0">General Gold</tspan></text></g></g></svg>