<svg version="1.1" xmlns="http://www.w3.org/2000/svg" xmlns:xlink="http://www.w3.org/1999/xlink" width="71" height="46" viewBox="0,0,71,46"><g transform="translate(-204.5,-157)"><g data-paper-data="{&quot;isPaintingLayer&quot;:true}" fill-rule="nonzero" stroke-linecap="butt" stroke-linejoin="miter" stroke-miterlimit="10" stroke-dasharray="" stroke-dashoffset="0" style="mix-blend-mode: normal"><path d="M205.5,202v-44h69v44z" fill="#000000" stroke="#000000" stroke-width="2"/><text transform="translate(218.12001,185.76875) scale(0.5,0.5)" font-size="40" xml:space="preserve" fill="#ff0000" fill-rule="nonzero" stroke="none" stroke-width="1" stroke-linecap="butt" stroke-linejoin="miter" stroke-miterlimit="10" stroke-dasharray="" stroke-dashoffset="0" font-family="Sans Serif" font-weight="normal" text-anchor="start" style="mix-blend-mode: normal"><tspan x="0" dy="0">WAR</tspan></text><path d="M258.19033,162.31816c2.9229,0.47413 4.47296,4.05437 5.87688,6.6615c0.74414,1.3819 -0.13051,6.82567 -0.26716,8.39204c-0.04858,0.55682 0.04083,1.13238 -0.01259,1.68546c2.21381,0.51464 3.86335,2.4998 3.86335,4.87024c0,2.76142 -2.23858,5 -5,5l-2.56207,0c-3.44949,-0.01976 -6.78489,-0.42701 -10.24829,-0.42701c0,0 -5,0 -5,-5c0,-0.01345 0.00004,-0.02687 0.00011,-0.04025l-1.09836,-0.64865c-0.97905,2.56132 -3.27361,4.43933 -6.67461,4.44619c-1.47393,1.66972 -3.88062,1.66972 -3.88062,1.66972c-1.337,-0.07151 -2.81708,0.39147 -4.01099,-0.21454c-0.42485,-0.21565 -0.86599,-0.4371 -1.30796,-0.67046c-0.05553,0.00254 -0.11104,0.00475 -0.16653,0.00665c-1.69209,0.05769 -3.61803,0.30133 -5.12632,-0.40307c-0.02114,0.00026 -0.04231,0.0004 -0.0635,0.0004c-2.18463,0 -4.04202,-1.40107 -4.72263,-3.35368l-1.24005,-3.3068l0.08548,-0.03205c-0.05994,-0.0784 -0.1192,-0.15739 -0.17774,-0.23701c-1.37078,-1.86437 -2.01048,-8.12839 -1.50713,-10.45381c0.48915,-2.25979 -0.05008,-5.71065 2.07645,-6.61828c2.91642,-1.24478 6.76074,-0.08689 9.35234,1.74029c0.20322,0.14328 0.38653,0.37109 0.55177,0.66644c0.87637,-0.75737 2.01855,-1.21546 3.26774,-1.21546c1.86479,0 3.49115,1.02086 4.3507,2.53421c1.18535,-0.30858 2.65669,-0.26318 4.48965,0.28445c0.51564,0.15406 0.98174,0.34676 1.40162,0.57265c0.88977,-1.62957 2.4261,-2.91662 4.75647,-3.53646c2.93233,-0.77995 5.09504,-0.42717 6.63383,0.63104c1.30794,-2.09305 3.28324,-3.50283 6.36018,-3.00371z" fill="#000000" stroke="none" stroke-width="0.5"/><text transform="translate(211.21571,175.67242) scale(0.37509,0.37509)" font-size="40" xml:space="preserve" fill="#ffffff" fill-rule="nonzero" stroke="none" stroke-width="1" stroke-linecap="butt" stroke-linejoin="miter" stroke-miterlimit="10" stroke-dasharray="" stroke-dashoffset="0" font-family="Sans Serif" font-weight="normal" text-anchor="start" style="mix-blend-mode: normal"><tspan x="0" dy="0">Change</tspan><tspan x="0" dy="46.15px">Country</tspan></text></g></g></svg>