<svg version="1.1" xmlns="http://www.w3.org/2000/svg" xmlns:xlink="http://www.w3.org/1999/xlink" width="730.67451" height="534.23887" viewBox="0,0,730.67451,534.23887"><g transform="translate(151.19143,97.05517)"><g data-paper-data="{&quot;isPaintingLayer&quot;:true}" fill-rule="nonzero" stroke="none" stroke-linecap="butt" stroke-linejoin="miter" stroke-miterlimit="10" stroke-dasharray="" stroke-dashoffset="0" style="mix-blend-mode: normal"><path d="M-41.55108,411.78546c-0.27584,0.08929 -6.4477,0.33134 -7.44892,0.21454c-2.04236,-0.23827 -4.52101,0.28517 -6.07706,-1.05897c-1.30327,-1.12578 -3.74132,-10.1672 -4.54234,-12.02761c-1.29631,-3.01076 -5.38434,-10.54084 -7.08648,-13.73694c-8.21806,-15.43108 -12.84796,-32.02344 -18.94662,-48.345c-2.85725,-7.64673 -6.64474,-14.76641 -9.18644,-22.57571c-2.07783,-6.38407 -4.2202,-12.77208 -6.97253,-18.89567c-0.35088,-2.73408 -0.49476,-5.50279 -1.05264,-8.20226c-0.99604,-4.81968 -3.63916,-9.16437 -4.97537,-13.90104c-1.24523,-4.41416 -1.57905,-9.03611 -2.41645,-13.54545c-2.18521,-11.7672 -2.58648,-23.82887 -5.58423,-35.45715c-0.79538,-3.08529 -2.26203,-5.9744 -3.01752,-9.0697c-0.11074,-0.45373 -2.98092,-18.8657 -3.04869,-19.22133c-1.0846,-5.69118 -2.74786,-11.25787 -3.98323,-16.91824c-1.87605,-8.59586 -3.10808,-17.33225 -4.98405,-25.92796c-2.06734,-9.47261 -4.82459,-18.79161 -6.88795,-28.28306c-1.92491,-8.85538 -3.82993,-17.74895 -6.06614,-26.53274c-1.98449,-7.79503 -5.93621,-15.62455 -7.11782,-23.56526c-0.52672,-3.53971 -0.04123,-7.15726 -0.05445,-10.73592c-0.01785,-4.83087 -0.3141,-9.67366 0.02434,-14.49269c0.36684,-5.22352 2.07707,-10.26495 3.05759,-15.40871c0.42631,-2.23641 0.53382,-4.54552 1.19017,-6.72554c1.36417,-4.53092 4.50571,-8.3224 6.71658,-12.50596c4.65682,-8.81197 9.90586,-17.2985 14.54187,-26.10851c4.90836,-9.32757 8.62887,-19.63862 13.1114,-29.20956c9.26477,-13.61669 27.58341,-17.22845 42.29009,-22.13016c15.75584,-5.25139 31.9123,-9.87365 48.3719,-12.37017c12.28942,-1.86401 25.11662,-1.77321 37.50182,-2.04491c4.64874,-0.10198 9.26617,-0.80004 13.90722,-1.08615c7.64074,-0.47104 15.29912,-0.54712 22.93301,-1.13594c12.13634,-0.92915 24.18425,-0.78169 36.35403,-0.78169c10.62556,0 21.10074,-0.31157 31.66603,1.04456c18.09208,2.32224 35.76655,7.56127 53.32369,12.05437c4.27688,1.09451 8.89089,0.09832 13.20283,1.04537c2.54062,0.558 4.72849,2.18856 7.18331,3.04873c4.03857,1.41511 8.50447,1.04669 12.69319,1.9226c2.49423,0.52157 4.90203,1.39391 7.35304,2.09087c2.93057,0.90149 13.16041,4.04715 13.33161,4.11114c3.01309,1.12609 5.76014,2.91666 8.81176,3.93375c2.86868,0.95612 5.95744,1.10158 8.85816,1.95557c5.69244,1.67589 11.04871,4.40881 16.78164,5.94049c4.94651,1.32157 10.07796,1.4428 15.10542,1.86222c6.07792,0.50706 11.17412,1.4763 17.27691,1.00738c7.46577,-0.57364 15.80866,-2.0934 23.05412,-3.82901c7.40318,-1.77339 14.61971,-5.95264 21.30161,-9.42046c6.79287,-3.52542 13.77245,-6.8212 20.33434,-10.76512c10.83696,-6.50218 21.2788,-13.19155 31.65796,-20.39633c2.61685,-1.81651 5.3143,-3.52139 7.8563,-5.44126c3.0499,-2.30345 5.95991,-5.72061 9.75915,-6.95032c1.41255,-0.45721 2.96445,-0.18895 4.44892,-0.21454c4.99926,-0.08616 10,-0.00222 15,0c18.32842,0.00812 37.88069,1.73009 55.26427,7.92793c5.3678,1.9138 11.10866,2.97615 16.12516,5.67996c1.9214,1.0356 3.41866,2.71472 5.12798,4.07208c1.74502,0.71528 3.66631,1.09904 5.23505,2.14583c1.67793,1.11966 2.73132,2.99602 4.3246,4.23318c1.59425,1.23792 3.67625,1.79199 5.17543,3.14348c4.90284,4.41985 8.57879,10.53535 13.2274,15.20722c6.73311,6.76682 14.92522,10.75504 20.60181,18.70246c1.70466,2.38658 3.71779,5.52905 4.64767,8.26518c0.64661,1.90261 1.5085,8.16325 2.10313,10.33934c0.57469,2.10311 1.625,4.07255 2.0511,6.21072c0.56706,2.84551 0.26826,5.82729 0.91167,8.65651c0.30602,1.34567 1.45821,2.37202 1.89416,3.68138c2.85312,8.56939 4.42431,17.01212 5.25113,25.96607c1.71986,7.75728 2.47456,15.32112 3.59497,23.16207c0.71111,4.97654 2.13642,14.20597 2.45682,19.3301c0.30753,4.91833 -0.39994,9.8708 -0.01668,14.78381c0.5508,7.06081 2.37128,13.94594 3,21c0.02933,0.32908 0.02433,8.9471 0.02433,10.49269c0,10.66666 0,21.33334 0,32c0,12.66666 0,29.33334 0,42c0,19.98214 1.09201,40.33119 -0.00765,60.2765c-0.16616,3.01388 -0.80988,5.98753 -1,9c-0.43942,6.96252 0.37514,14.03586 0,21c-0.44697,8.29754 -3.28294,15.94928 -4.00938,24.1359c-0.15316,1.72607 0.17305,3.4765 -0.02043,5.19851c-0.44168,3.93122 -1.65155,7.75991 -1.9724,11.70283c-0.40883,5.02429 -0.14296,10.14445 -1.18716,15.076c-0.31598,1.49231 -1.6261,2.63025 -2.03041,4.10109c-0.65172,2.37087 -0.73457,4.86245 -1.10186,7.29367c-3.11465,4.95312 -5.75513,9.77114 -8.05131,15.1289c-1.92021,4.4805 -3.46015,9.96012 -7.00076,13.53701c-1.67636,1.69353 -9.46348,6.33093 -12.09191,7.86416c-6.61356,3.85785 -13.75513,8.19246 -21.12085,10.48369c-1.95536,0.60825 -4.08297,0.47805 -6.05861,1.01679c-5.85789,1.59738 -11.57342,4.14886 -17.65377,5.1366c-4.50547,0.73191 -9.12898,0.04833 -13.69351,0.04833c-5,0 -10,0 -15,0c-28.96368,0 -57.71213,-1.93793 -86.67359,0.1565c-9.13843,0.66087 -18.44477,1.46249 -27.51542,2.77729c-4.88772,0.70848 -9.60125,2.36298 -14.47473,3.16363c-6.53657,1.07389 -13.24621,0.93782 -19.75234,2.18296c-3.23949,0.61997 -6.3391,1.83234 -9.54431,2.61034c-4.21577,1.0233 -8.57575,1.31762 -12.86471,1.96928c-8.62671,2.88871 -17.118,4.77272 -25.93399,6.98356c-5.85591,1.46852 -9.07202,2.79239 -15.45732,4.28324c-17.82962,4.16287 -36.12152,6.71929 -54.29261,8.7383c-9.32062,1.03562 -18.8527,2.60874 -28.21449,3.12724c-7.69207,0.42602 -15.56881,0.00767 -23.2765,0.00765c-12.13246,-0.00002 -24.13457,0.09492 -36.22657,-1.00513c-9.78066,0.0087 -19.256,-0.42462 -29.00119,-1.00006c-4.70285,-0.27769 -9.42786,0.05678 -14.13164,-0.20482c-15.86978,-0.88259 -32.67305,-2.66332 -48.01748,-6.9833c-19.4416,-5.47347 -37.89082,-14.52667 -57.41877,-19.59572c-2.01828,1.34753 -5.06082,3.34967 -5.75543,3.5745zM569,116c0,-3.16912 0.31734,-6.35177 0.02433,-9.50731c-0.65458,-7.04945 -2.46365,-13.93512 -3,-21c-0.38396,-5.05751 0.29955,-10.15399 -0.01668,-15.21619c-0.28746,-4.60153 -1.75289,-14.13675 -2.37161,-18.46889c-1.11409,-7.80061 -1.86732,-15.31846 -3.5766,-23.03894c-0.7411,-8.28754 -2.1034,-16.10697 -4.74887,-24.03393c-0.507,-1.51919 -1.74123,-2.75911 -2.10584,-4.31862c-0.71384,-3.05322 -0.47131,-6.26925 -1.08833,-9.34349c-0.40068,-1.99636 -1.41411,-3.82459 -1.9489,-5.78927c-1.57914,-5.80128 -1.67144,-10.38677 -5.24919,-15.39548c-5.22393,-7.31329 -13.13721,-11.06337 -19.39819,-17.29753c-4.50677,-4.48747 -8.04491,-10.54581 -12.7726,-14.79278c-1.39033,-1.24896 -3.35036,-1.70778 -4.82458,-2.85652c-1.38378,-1.07827 -2.21527,-2.79443 -3.67539,-3.76682c-1.41855,-0.9447 -3.17663,-1.23611 -4.76495,-1.85417c-1.62401,-1.3093 -3.04654,-2.91832 -4.87202,-3.92792c-1.60443,-0.88734 -3.50785,-1.07078 -5.24208,-1.66578c-3.16969,-1.0875 -6.31239,-2.25214 -9.4676,-3.38099c-16.27708,-5.82348 -34.7437,-7.35319 -51.9009,-7.34534c-5,0.00229 -10.00126,0.11228 -15,0c-0.52182,-0.01172 -1.05993,-0.39116 -1.55108,-0.21454c-2.30415,0.82858 -4.3428,3.6161 -6.24085,5.04968c-2.77784,2.09808 -5.70603,3.98932 -8.5618,5.98003c-10.54741,7.35242 -21.19723,14.14636 -32.22365,20.76221c-6.74867,4.04285 -13.89304,7.45006 -20.87613,11.06774c-7.30113,3.78244 -15.11482,8.19623 -23.18821,10.16686c-7.80068,1.90407 -16.88279,3.55014 -24.94588,4.17099c-6.60226,0.50837 -12.17902,-0.44788 -18.72309,-0.99263c-5.62674,-0.46839 -11.36466,-0.66563 -16.89458,-2.13778c-5.87972,-1.56527 -11.38065,-4.34424 -17.21836,-6.05951c-2.9959,-0.88027 -6.17956,-1.0569 -9.14184,-2.04443c-3.17736,-1.05924 -6.0515,-2.89218 -9.18824,-4.06625c-4.13698,-1.54847 -8.44654,-2.5895 -12.66839,-3.88886c-2.21565,-0.63638 -4.38998,-1.43995 -6.64696,-1.90913c-4.39536,-0.91371 -9.05388,-0.63984 -13.30681,-2.0774c-2.34566,-0.79288 -4.40082,-2.40867 -6.81669,-2.95127c-4.17361,-0.93738 -8.63789,0.04439 -12.79717,-0.95463c-17.4529,-4.19203 -34.75598,-9.62418 -52.67631,-11.94563c-10.10623,-1.30918 -20.16713,-0.95544 -30.33397,-0.95544c-11.91159,0 -23.70954,-0.1659 -35.58706,0.75223c-7.68494,0.58962 -15.3932,0.67228 -23.08465,1.14645c-4.71657,0.29077 -9.40976,0.98913 -14.13404,1.09754c-12.04812,0.2765 -24.54384,0.13125 -36.49818,1.95509c-15.85899,2.41956 -31.41948,6.89308 -46.60176,11.95438c-9.14566,3.04888 -17.76257,5.5895 -26.42803,9.86301c-4.20266,2.07261 -7.72489,3.64983 -10.30822,7.68227c-4.3946,9.45368 -8.05951,19.58039 -12.8886,28.79044c-4.65526,8.87853 -9.95049,17.42498 -14.63941,26.29797c-1.97103,3.72985 -4.96274,7.02573 -6.10215,11.08756c-3.08621,11.00194 -3.68149,22.06793 -3.7279,33.37306c-0.01268,3.08805 -0.50897,6.20963 -0.05445,9.26408c1.12322,7.54828 4.9883,15.01509 6.88218,22.43474c2.2822,8.94098 4.22244,17.99551 6.18246,27.01079c2.05568,9.45614 4.79929,18.73636 6.86346,28.17341c1.89049,8.64303 3.1285,17.42849 5.01595,26.07204c1.24787,5.71457 2.92042,11.3362 4.01677,17.08176c1.18766,6.22409 1.43758,12.62574 2.95131,18.77867c0.74974,3.04752 2.20234,5.89042 2.98248,8.9303c3.04757,11.87522 3.49701,24.13114 5.73521,36.1363c0.7978,4.27922 1.07478,8.67378 2.26412,12.8611c1.36317,4.79935 3.98858,9.21854 5.02463,14.09896c0.54372,2.56128 0.63157,5.19849 0.94736,7.79774c2.75203,5.98188 4.82642,12.26162 6.85975,18.52438c2.47089,7.61046 6.18931,14.55425 8.98129,22.00425c5.97335,15.93904 10.42049,32.2407 18.46515,47.30206c1.94326,3.63819 6.05159,11.21841 7.50175,14.61599c0.82236,1.92672 2.70052,4.93618 2.37453,6.75129c0.66069,-0.00735 1.34689,0.13105 2.00607,0.16213c2.59982,0.12255 3.93562,-1.633 6.2265,-3.16025l2.53743,-1.31188c0,0 4.07504,-2.03753 6.39025,1.66727c18.71082,5.2219 36.50964,13.71388 55.2227,18.99818c14.61608,4.12737 30.70372,5.76951 45.81965,6.61214c4.6703,0.26034 9.36166,-0.07327 14.03123,0.19974c9.74904,0.56997 19.21672,0.99187 28.99881,0.99994c11.94444,1.08508 23.78891,0.99489 35.77343,0.99487c7.5247,-0.00002 15.21325,0.42361 22.7235,0.00765c9.17828,-0.50834 18.52648,-2.06619 27.66318,-3.08139c17.77851,-1.97539 35.67862,-4.46456 53.12326,-8.53755c4.36072,-1.01815 10.60953,-3.06815 15.24913,-4.23228c8.87642,-2.22717 17.37203,-4.13113 26.06601,-7.01644c4.37777,-0.68119 8.83182,-0.97765 13.13529,-2.03072c3.27186,-0.80063 6.44173,-2.02352 9.75097,-2.65201c2.10395,-0.39958 17.61087,-1.83445 20.00376,-2.22757c4.8732,-0.80061 9.58737,-2.44872 14.4739,-3.16349c9.36489,-1.36982 18.9785,-2.2 28.4155,-2.88362c29.20483,-2.11561 58.19017,-0.18259 87.39549,-0.18259c5,0 10,0 15,0c4.10219,0 8.26353,0.74292 12.30649,0.04833c5.62577,-0.96652 10.91175,-3.38106 16.34623,-4.8634c1.93665,-0.52825 4.02073,-0.39952 5.94139,-0.98321c6.54014,-1.98755 13.03573,-6.10759 18.87915,-9.51631c0.88222,-0.51464 9.28691,-5.524 9.90809,-6.13584c2.57744,-2.53864 3.61907,-7.24259 4.99924,-10.46299c2.24262,-5.23277 4.54511,-10.24911 7.94869,-14.8711c0.29938,-2.23544 0.30941,-4.52912 0.89814,-6.70633c0.38008,-1.40557 1.65915,-2.47634 1.96959,-3.89891c0.9203,-4.21726 0.44632,-8.62307 0.81284,-12.924c0.35276,-4.1394 1.57449,-8.16755 2.0276,-12.29717c0.17457,-1.59096 -0.16856,-3.20785 -0.02043,-4.80149c0.75266,-8.09738 3.57095,-15.68091 3.99062,-23.8641c0.35741,-6.96918 -0.43137,-14.0322 0,-21c0.18651,-3.0127 0.83126,-5.98626 1,-9c1.10608,-19.75463 -0.00765,-39.93065 -0.00765,-59.7235c0,-12.66666 0,-25.33334 0,-38c0,-10.66666 0,-25.33334 0,-36z" fill="#0030ff" stroke-width="0.5"/><path d="M569.04994,151.99747c0,12.66666 -0.00002,25.33868 -0.00002,38.00535c0,19.79285 1.11259,39.97702 0.00651,59.73165c-0.16874,3.01374 -0.81378,5.98851 -1.00029,9.0012c-0.43137,6.9678 0.35667,14.03347 -0.00074,21.00265c-0.41967,8.18318 -3.239,15.76974 -3.99166,23.86712c-0.14813,1.59364 0.19477,3.21108 0.02021,4.80204c-0.45312,4.12962 -1.67546,8.15925 -2.02822,12.29865c-0.36652,4.30093 0.10681,8.70818 -0.81349,12.92545c-0.31043,1.42257 -1.58976,2.49385 -1.96984,3.89942c-0.58873,2.17721 -0.59913,4.47164 -0.89851,6.70708c-3.40358,4.62198 -5.7071,9.64025 -7.94972,14.87302c-1.38017,3.2204 -2.42256,7.92564 -4.99999,10.46428c-0.62118,0.61183 -9.02659,5.62235 -9.90881,6.13699c-5.84343,3.40872 -12.34039,7.53078 -18.88053,9.51834c-1.92066,0.58369 -4.00508,0.45543 -5.94173,0.98368c-5.43448,1.48234 -10.7216,3.89838 -16.34738,4.86491c-4.04296,0.69459 -8.20499,-0.04748 -12.30718,-0.04748c-5,0 -10.00092,0.00108 -15.00092,0.00108c-29.20533,0 -58.19837,-1.92589 -87.40319,0.18972c-9.437,0.68362 -19.05448,1.51642 -28.41936,2.88624c-4.88653,0.71476 -9.60305,2.36423 -14.47625,3.16484c-2.39289,0.39312 -17.90314,1.82963 -20.00709,2.22921c-3.30924,0.62849 -6.48095,1.85215 -9.7528,2.65278c-4.30347,1.05307 -8.75998,1.35045 -13.13775,2.03163c-8.69398,2.88531 -17.19485,4.79073 -26.07127,7.01791c-4.6396,1.16412 -10.89153,3.21472 -15.25226,4.23287c-17.44465,4.07299 -35.35538,6.56268 -53.13389,8.53807c-9.13671,1.01519 -18.49014,2.57246 -27.66842,3.0808c-7.51025,0.41595 -15.20294,-0.00853 -22.72764,-0.00851c-11.98452,0.00002 -23.83504,0.08826 -35.77948,-0.99682c-9.78208,-0.00807 -19.25413,-0.43194 -29.00317,-1.00191c-4.66957,-0.27301 -9.36283,0.05959 -14.03313,-0.20075c-15.11593,-0.84263 -31.20935,-2.48858 -45.82543,-6.61595c-18.71306,-5.2843 -36.51802,-13.78183 -55.22884,-19.00374c-2.31521,-3.7048 -6.39081,-1.66788 -6.39081,-1.66788l-2.5375,1.31181c-2.29088,1.52725 -3.62685,3.28261 -6.22667,3.16006c-0.65919,-0.03107 -1.34552,-0.16963 -2.00621,-0.16228c0.32599,-1.81511 -1.55279,-4.8253 -2.37516,-6.75201c-1.45016,-3.39758 -5.55997,-10.97961 -7.50322,-14.6178c-8.04466,-15.06136 -12.49584,-31.36913 -18.4692,-47.30817c-2.79198,-7.45 -6.51203,-14.39696 -8.98292,-22.00742c-2.03333,-6.26276 -4.10891,-12.54524 -6.86094,-18.52712c-0.31579,-2.59925 -0.40406,-5.23753 -0.94778,-7.79882c-1.03605,-4.88043 -3.6622,-9.30177 -5.02538,-14.10112c-1.18934,-4.18732 -1.46689,-8.58377 -2.26469,-12.863c-2.2382,-12.00517 -2.68884,-24.26656 -5.73641,-36.14178c-0.78014,-3.03988 -2.23294,-5.88419 -2.98268,-8.93171c-1.51372,-6.15293 -1.76395,-12.55747 -2.95161,-18.78156c-1.09634,-5.74556 -2.76902,-11.36981 -4.01689,-17.08438c-1.88745,-8.64354 -3.12539,-17.4329 -5.01588,-26.07593c-2.06417,-9.43705 -4.80739,-18.72128 -6.86307,-28.17742c-1.96001,-9.01528 -3.89963,-18.07339 -6.18183,-27.01438c-1.89388,-7.41966 -5.7583,-14.88917 -6.88152,-22.43745c-0.45451,-3.05445 0.04211,-6.17719 0.05479,-9.26524c0.04641,-11.30513 0.64312,-22.37525 3.72933,-33.37719c1.13941,-4.06183 4.13176,-7.35925 6.10279,-11.0891c4.68892,-8.87299 9.98589,-17.42304 14.64116,-26.30156c4.82909,-9.21004 8.49611,-19.34034 12.89071,-28.79402c2.58333,-4.03244 6.10645,-5.611 10.30911,-7.68361c8.66546,-4.27352 17.2843,-6.81673 26.42996,-9.86561c15.18228,-5.0613 30.74662,-9.53914 46.60562,-11.9587c11.95434,-1.82384 24.45331,-1.68156 36.50143,-1.95806c4.72428,-0.10842 9.41896,-0.80798 14.13554,-1.09875c7.69145,-0.47416 15.40239,-0.55875 23.08733,-1.14837c11.87752,-0.91814 23.68024,-0.75507 35.59183,-0.75507c10.16684,0 20.23242,-0.35589 30.33865,0.9533c17.92032,2.32144 35.23272,7.75091 52.68562,11.94294c4.15928,0.99902 8.62625,0.01683 12.79986,0.95421c2.41586,0.5426 4.47243,2.15823 6.8181,2.95111c4.25294,1.43756 8.91439,1.16349 13.30975,2.0772c2.25698,0.46918 4.43281,1.27271 6.64846,1.90909c4.22185,1.29937 8.53434,2.34045 12.67132,3.88892c3.13674,1.17408 6.01308,3.00717 9.19044,4.0664c2.96228,0.98753 6.14812,1.1644 9.14402,2.04468c5.83772,1.71527 11.34288,4.49501 17.22259,6.06028c5.52992,1.47215 11.27172,1.67044 16.89847,2.13882c6.54406,0.54474 12.12479,1.50242 18.72706,0.99405c8.06309,-0.62085 17.14946,-2.26496 24.95013,-4.16903c8.07338,-1.97063 15.88985,-6.38286 23.19098,-10.1653c6.98309,-3.61767 14.12935,-7.02368 20.87802,-11.06653c11.02643,-6.61586 21.67829,-13.40835 32.22569,-20.76077c2.85577,-1.99071 5.78438,-3.88163 8.56222,-5.97972c1.89805,-1.43358 3.93693,-4.22093 6.24109,-5.0495c0.49115,-0.17662 1.02943,0.20295 1.55125,0.21467c4.99874,0.11228 10.00138,0.0034 15.00138,0.00111c17.1572,-0.00785 35.62827,1.52607 51.90536,7.34955c3.15521,1.12884 6.29872,2.29438 9.46841,3.38188c1.73423,0.595 3.63807,0.77891 5.2425,1.66626c1.82548,1.0096 3.24855,2.61924 4.87255,3.92855c1.58832,0.61806 3.34679,0.90993 4.76534,1.85463c1.46012,0.97239 2.29206,2.6891 3.67583,3.76736c1.47422,1.14874 3.43467,1.6081 4.825,2.85706c4.7277,4.24697 8.26736,10.30737 12.77413,14.79485c6.26098,6.23416 14.17603,9.98698 19.39997,17.30028c3.57776,5.00871 3.67109,9.596 5.25023,15.39728c0.5348,1.96468 1.5486,3.79361 1.94928,5.78997c0.61702,3.07424 0.37502,6.2913 1.08885,9.34452c0.36461,1.55951 1.59912,2.79999 2.10612,4.31919c2.64546,7.92696 4.00905,15.74929 4.75016,24.03683c1.70928,7.72048 2.46358,15.24122 3.57767,23.04183c0.61872,4.33214 2.08489,13.86974 2.37235,18.47127c0.31624,5.0622 -0.36676,10.16064 0.0172,15.21815c0.53635,7.06488 2.34602,13.95342 3.0006,21.00287c0.29301,3.15554 -0.02412,6.33948 -0.02412,9.5086c0,10.66666 0.0005,25.33832 0.0005,36.00499z" data-paper-data="{&quot;noHover&quot;:false,&quot;origItem&quot;:[&quot;Path&quot;,{&quot;applyMatrix&quot;:true,&quot;segments&quot;:[[[569,116],[0,10.66666],[0,-3.16912]],[[569.02433,106.49269],[0.29301,3.15554],[-0.65458,-7.04945]],[[566.02433,85.49269],[0.53635,7.06488],[-0.38396,-5.05751]],[[566.00765,70.2765],[0.31624,5.0622],[-0.28746,-4.60153]],[[563.63604,51.80761],[0.61872,4.33214],[-1.11409,-7.80061]],[[560.05944,28.76867],[1.70928,7.72048],[-0.7411,-8.28754]],[[555.31058,4.73473],[2.64546,7.92696],[-0.507,-1.51919]],[[553.20473,0.41611],[0.36461,1.55951],[-0.71384,-3.05322]],[[552.11641,-8.92738],[0.61702,3.07424],[-0.40068,-1.99636]],[[550.1675,-14.71666],[0.5348,1.96468],[-1.57914,-5.80128]],[[544.91831,-30.11214],[3.57776,5.00871],[-5.22393,-7.31329]],[[525.52012,-47.40967],[6.26098,6.23416],[-4.50677,-4.48747]],[[512.74752,-62.20245],[4.7277,4.24697],[-1.39033,-1.24896]],[[507.92294,-65.05897],[1.47422,1.14874],[-1.38378,-1.07827]],[[504.24755,-68.82579],[1.46012,0.97239],[-1.41855,-0.9447]],[[499.48259,-70.67997],[1.58832,0.61806],[-1.62401,-1.3093]],[[494.61058,-74.60789],[1.82548,1.0096],[-1.60443,-0.88734]],[[489.3685,-76.27367],[1.73423,0.595],[-3.16969,-1.0875]],[[479.9009,-79.65466],[3.15521,1.12884],[-16.27708,-5.82348]],[[428,-87],[17.1572,-0.00785],[-5,0.00229]],[[413,-87],[4.99874,0.11228],[-0.52182,-0.01172]],[[411.44892,-87.21454],[0.49115,-0.17662],[-2.30415,0.82858]],[[405.20807,-82.16486],[1.89805,-1.43358],[-2.77784,2.09808]],[[396.64627,-76.18483],[2.85577,-1.99071],[-10.54741,7.35242]],[[364.42262,-55.42262],[11.02643,-6.61586],[-6.74867,4.04285]],[[343.5465,-44.35488],[6.98309,-3.61767],[-7.30113,3.78244]],[[320.35829,-34.18803],[8.07338,-1.97063],[-7.80068,1.90407]],[[295.4124,-30.01703],[8.06309,-0.62085],[-6.60226,0.50837]],[[276.68932,-31.00966],[6.54406,0.54474],[-5.62674,-0.46839]],[[259.79474,-33.14744],[5.52992,1.47215],[-5.87972,-1.56527]],[[242.57638,-39.20695],[5.83772,1.71527],[-2.9959,-0.88027]],[[233.43454,-41.25138],[2.96228,0.98753],[-3.17736,-1.05924]],[[224.2463,-45.31763],[3.13674,1.17408],[-4.13698,-1.54847]],[[211.57791,-49.2065],[4.22185,1.29937],[-2.21565,-0.63638]],[[204.93095,-51.11562],[2.25698,0.46918],[-4.39536,-0.91371]],[[191.62413,-53.19303],[4.25294,1.43756],[-2.34566,-0.79288]],[[184.80745,-56.1443],[2.41586,0.5426],[-4.17361,-0.93738]],[[172.01028,-57.09893],[4.15928,0.99902],[-17.4529,-4.19203]],[[119.33397,-69.04456],[17.92032,2.32144],[-10.10623,-1.30918]],[[89,-70],[10.16684,0],[-11.91159,0]],[[53.41294,-69.24776],[11.87752,-0.91814],[-7.68494,0.58962]],[[30.32829,-68.10132],[7.69145,-0.47416],[-4.71657,0.29077]],[[16.19424,-67.00377],[4.72428,-0.10842],[-12.04812,0.2765]],[[-20.30393,-65.04869],[11.95434,-1.82384],[-15.85899,2.41956]],[[-66.90569,-53.0943],[15.18228,-5.0613],[-9.14566,3.04888]],[[-93.33372,-43.23129],[8.66546,-4.27352],[-4.20266,2.07261]],[[-103.64194,-35.54902],[2.58333,-4.03244],[-4.3946,9.45368]],[[-116.53054,-6.75858],[4.82909,-9.21004],[-4.65526,8.87853]],[[-131.16995,19.53938],[4.68892,-8.87299],[-1.97103,3.72985]],[[-137.2721,30.62694],[1.13941,-4.06183],[-3.08621,11.00194]],[[-141,64],[0.04641,-11.30513],[-0.01268,3.08805]],[[-141.05445,73.26408],[-0.45451,-3.05445],[1.12322,7.54828]],[[-134.17228,95.69883],[-1.89388,-7.41966],[2.2822,8.94098]],[[-127.98982,122.70962],[-1.96002,-9.01528],[2.05568,9.45614]],[[-121.12636,150.88303],[-2.06417,-9.43705],[1.89049,8.64303]],[[-116.11041,176.95507],[-1.88745,-8.64354],[1.24787,5.71457]],[[-112.09364,194.03683],[-1.09634,-5.74556],[1.18766,6.22409]],[[-109.14233,212.81549],[-1.51372,-6.15293],[0.74974,3.04752]],[[-106.15986,221.7458],[-0.78014,-3.03988],[3.04757,11.87522]],[[-100.42465,257.8821],[-2.2382,-12.00517],[0.7978,4.27922]],[[-98.16053,270.7432],[-1.18934,-4.18732],[1.36317,4.79935]],[[-93.1359,284.84216],[-1.03605,-4.88043],[0.54372,2.56128]],[[-92.18854,292.6399],[-0.31579,-2.59925],[2.75203,5.98188]],[[-85.32879,311.16428],[-2.03333,-6.26276],[2.47089,7.61046]],[[-76.3475,333.16853],[-2.79198,-7.45],[5.97335,15.93904]],[[-57.88235,380.47059],[-8.04466,-15.06136],[1.94326,3.63819]],[[-50.3806,395.08659],[-1.45016,-3.39758],[0.82236,1.92672]],[[-48.00607,401.83788],[0.32599,-1.81511],[0.66069,-0.00735]],[[-46,402],[-0.65919,-0.03107],[2.59982,0.12255]],[[-39.7735,398.83975],[-2.29088,1.52725],[0,0]],[-37.23607,397.52787],[[-30.84582,399.19514],[-2.31521,-3.7048],[18.71082,5.2219]],[[24.37688,418.19332],[-18.71306,-5.2843],[14.61608,4.12737]],[[70.19653,424.80546],[-15.11593,-0.84263],[4.6703,0.26034]],[[84.22776,425.00519],[-4.66957,-0.27301],[9.74904,0.56997]],[[113.22657,426.00514],[-9.78208,-0.00807],[11.94444,1.08508]],[[149,427],[-11.98452,0.00002],[7.5247,-0.00002]],[[171.7235,427.00765],[-7.51025,0.41595],[9.17828,-0.50834]],[[199.38668,423.92627],[-9.13671,1.01519],[17.77851,-1.97539]],[[252.50995,415.38871],[-17.44465,4.07299],[4.36072,-1.01815]],[[267.75908,411.15644],[-4.6396,1.16412],[8.87642,-2.22717]],[[293.82509,404.14],[-8.69398,2.88531],[4.37777,-0.68119]],[[306.96038,402.10928],[-4.30347,1.05307],[3.27186,-0.80063]],[[316.71135,399.45727],[-3.30924,0.62849],[2.10395,-0.39958]],[[336.71511,397.2297],[-2.39289,0.39312],[4.8732,-0.80061]],[[351.18901,394.06621],[-4.88653,0.71476],[9.36489,-1.36982]],[[379.60451,391.18259],[-9.437,0.68362],[29.20483,-2.11561]],[[467,391],[-29.20533,0],[5,0]],[[482,391],[-5,0],[4.10219,0]],[[494.3065,391.04833],[-4.04296,0.69459],[5.62577,-0.96652]],[[510.65273,386.18494],[-5.43448,1.48234],[1.93665,-0.52825]],[[516.59412,385.20172],[-1.92066,0.58369],[6.54014,-1.98755]],[[535.47327,375.68542],[-5.84343,3.40872],[0.88222,-0.51464]],[[545.38136,369.54958],[-0.62118,0.61183],[2.57744,-2.53864]],[[550.3806,359.08659],[-1.38017,3.2204],[2.24262,-5.23277]],[[558.32929,344.21549],[-3.40358,4.62198],[0.29938,-2.23544]],[[559.22743,337.50916],[-0.58873,2.17721],[0.38008,-1.40557]],[[561.19702,333.61026],[-0.31043,1.42257],[0.9203,-4.21726]],[[562.00986,320.68626],[-0.36652,4.30093],[0.35276,-4.1394]],[[564.03746,308.38909],[-0.45312,4.12962],[0.17457,-1.59096]],[[564.01704,303.5876],[-0.14813,1.59364],[0.75266,-8.09738]],[[568.00765,279.7235],[-0.41967,8.18318],[0.35741,-6.96918]],[[568.00765,258.7235],[-0.43137,6.9678],[0.18651,-3.0127]],[[569.00765,249.7235],[-0.16874,3.01374],[1.10608,-19.75463]],[[569,190],[0,19.79285],[0,-12.66666]],[[569,152],[0,12.66666],[0,-10.66666]]],&quot;closed&quot;:true}]}" fill="#0030ff" stroke-width="0.5"/><text transform="translate(16,97.25) scale(1.60509,1.60509)" font-size="40" xml:space="preserve" fill="#000000" fill-rule="nonzero" stroke="none" stroke-width="1" stroke-linecap="butt" stroke-linejoin="miter" stroke-miterlimit="10" stroke-dasharray="" stroke-dashoffset="0" font-family="Sans Serif" font-weight="normal" text-anchor="start" style="mix-blend-mode: normal"><tspan x="0" dy="0">MODERNIA 1</tspan></text></g></g></svg>