<svg version="1.1" xmlns="http://www.w3.org/2000/svg" xmlns:xlink="http://www.w3.org/1999/xlink" width="641.10801" height="495.62044" viewBox="0,0,641.10801,495.62044"><g transform="translate(88.33673,62.73626)"><g data-paper-data="{&quot;isPaintingLayer&quot;:true}" fill="#2b7cff" fill-rule="nonzero" stroke="none" stroke-width="0.5" stroke-linecap="butt" stroke-linejoin="miter" stroke-miterlimit="10" stroke-dasharray="" stroke-dashoffset="0" style="mix-blend-mode: normal"><path d="M-49.53318,-21.71726c-2.40813,0 -6.22471,0.62026 -8.50348,-0.06688c-1.62403,-0.48971 -3.23251,-1.20925 -4.55153,-2.27576c-1.19909,-0.96954 -1.72115,-2.58269 -2.80893,-3.67565c-1.12815,-1.13352 -2.81086,-1.68023 -3.78438,-2.94902c-1.75966,-2.29337 -1.33054,-5.18923 -1.34789,-7.78716c0.19787,-1.32022 -0.016,-2.77302 0.59362,-3.96067c4.12323,-8.03284 13.10636,-7.23903 20.83519,-7.74604c23.99558,-1.57408 48.01874,-2.08812 72.0735,-2.08812c14.97338,0 30.1025,-0.06929 44.99583,1.78357c4.58727,0.5707 9.20029,1.77888 13.73733,2.65838c8.18475,1.58661 16.58016,2.77632 24.67,4.78572c6.51018,1.61703 12.93496,3.93255 19.35252,5.8884c7.49296,2.93988 14.99233,5.86457 22.4758,8.82853c3.75842,1.48859 9.06975,3.20301 13.23218,2.53083c1.16446,-0.18805 2.02092,-1.24872 3.12945,-1.65184c4.54874,-1.65419 9.61174,-2.28865 14.27643,-3.58305c5.84054,-1.62069 11.46802,-4.05863 17.33352,-5.58532c8.06277,-2.0986 16.48261,-3.3007 24.65395,-4.93497c21.09647,-4.2192 42.30801,-8.51967 63.58394,-11.73551c12.37429,-1.87037 24.87906,-3.13077 37.29281,-4.73255c16.77583,-2.16462 34.06621,-4.55307 51.00016,-4.71939c5.01167,-0.04922 10.05827,0.64719 15.06916,0.77693c10.99092,0.28457 21.82656,0.12851 32.80574,0.91744c9.16023,0.79641 18.30092,1.65033 27.48448,2.1095c6.46723,0.32336 13.40174,0.20845 19.75467,1.617c4.8831,1.08267 9.6435,3.47172 14.06524,5.71723c1.65963,0.84282 3.54006,1.35929 4.9633,2.5589c3.33952,2.81479 3.74416,5.65077 4.97726,9.55363c2.27828,7.211 4.19533,14.82988 5.03721,22.35453c0.78478,7.11124 1.41067,15.24477 0.53517,22.38515c-0.50049,4.08183 -1.18686,4.15363 -0.02766,8.73491c0.7944,3.13955 1.44171,6.33157 2.54633,9.37585c1.59824,4.40468 4.64882,8.37571 6.63548,12.60824c3.27816,6.98403 6.54177,14.53612 8.4237,22.01584c0,0 0.19021,0.76085 -0.06858,1.53679c0.01008,0.02645 0.01494,0.04101 0.01494,0.04101l0.18088,0.54265c1.99921,6.01641 2.82858,12.57943 5.40034,18.4034c0.66558,1.50726 1.76441,2.79363 2.4611,4.28676c1.40604,3.0134 2.02444,6.35738 3.46196,9.35589c1.44025,3.00421 3.68802,5.57395 5.1345,8.57517c2.16762,4.49745 3.54408,9.56848 5.34592,14.22717c3.4958,9.03844 7.18536,17.98587 10.58821,27.06012c2.25467,6.06483 2.95502,12.11135 3.76281,18.53144c1.83659,14.59673 1.69616,28.81485 1.15678,43.49076c-0.49261,13.40342 -0.32026,26.7995 -1.93456,40.13793c-1.9842,16.27139 -8.31525,31.30074 -15.76696,45.7905c-2.28476,4.44268 -5.22632,8.55595 -7.61343,12.94469c-3.25153,5.97797 -5.72535,12.51891 -8.36459,18.7871c-1.74228,4.13792 -3.56634,8.10058 -4.71649,12.44318c-4.23826,15.89348 -8.8269,31.69693 -13.15373,47.56418c-0.77988,2.85995 -2.00355,5.60285 -2.58014,8.51061c-0.64464,3.25092 1.05657,6.17785 -1.46588,9.20407c-1.90857,2.28974 -5.19491,2.94198 -7.91258,4.16664c-5.9038,2.66042 -11.72557,5.57052 -17.74024,7.97929c-4.05862,1.52581 -8.23542,3.61763 -12.41164,4.71842c-3.27991,0.86453 -6.71948,0.94904 -10.05328,1.57434c-4.78916,0.89828 -9.50078,2.31909 -14.38339,2.68026c-9.35097,0.69171 -18.86173,-0.3799 -28.23131,0.00246c-9.60235,0.39187 -19.40143,1.57234 -28.96038,2.6342c-14.26113,1.29684 -28.02921,5.10233 -42.21552,7.03963c-19.43103,2.65353 -39.16864,2.66414 -58.73415,2.66414c-33.87503,0 -67.75006,0 -101.6251,0c-22.69759,0 -45.78286,-0.54452 -68.39518,-2.65541c-4.40097,-0.41084 -8.75301,-1.3776 -13.15625,-1.75684c-6.1974,-0.53376 -12.35045,-0.11327 -18.55277,-0.88547c-7.65444,-0.52536 -15.27228,-0.98651 -22.87237,-1.75897c-4.42812,-0.45006 -9.17577,0.7393 -13.55825,-0.06845c-4.31181,-0.79472 -8.49961,-2.91224 -12.97029,-3.46572c-5.45391,-0.67521 -11.78796,-0.64056 -17.1015,-2.26069c-1.66139,-0.50657 -3.06246,-1.65458 -4.67217,-2.30701c-4.54608,-1.84258 -9.54267,-2.57529 -14.09617,-4.40505c-0.12424,-0.04992 -8.80611,-4.39418 -8.96941,-4.47584c-8.3642,-3.96158 -16.99115,-7.60725 -24.89427,-12.45897c-3.95154,-2.42585 -7.52851,-5.46029 -11.45314,-7.92909c-4.41702,-2.77855 -8.17004,-4.44235 -11.88925,-8.27284c-1.38387,-1.42528 -3.16316,-2.58292 -4.07747,-4.34659c-1.36352,-2.63019 -0.1903,-5.92319 -0.1903,-8.8858c0,-9.10378 0,-18.20755 0,-27.31133c0,-20.82198 0.74725,-41.69071 -1.56724,-62.3795c-0.52269,-4.67224 -0.71768,-9.97056 -1.87757,-14.52503c-1.90618,-7.48488 -5.15028,-14.862 -7.24672,-22.36161c-4.69594,-16.79903 -5.16666,-33.43266 -5.16666,-50.79171c0,-15.1755 0,-30.35099 0,-45.52649c0,-7.35097 -0.41345,-14.85553 0.00556,-22.19197c0.35515,-6.2182 2.22674,-12.28151 2.6423,-18.48986c0.10443,-1.56012 -0.18432,-3.14247 0.03437,-4.69072c0.36486,-2.58305 2.07167,-4.81421 2.6956,-7.34719c0.40359,-1.63846 0.2234,-3.39065 0.671,-5.01764c0.45457,-1.65233 1.4443,-3.1142 2.01108,-4.73148c3.44323,-9.82514 7.53395,-19.28295 11.40619,-28.96638c5.349,-13.36908 8.40574,-27.33574 13.22186,-40.83899c2.24335,-6.28982 5.46181,-12.28642 8.02744,-18.45094c2.06604,-4.96413 3.99008,-9.98707 5.96659,-14.98955c-2.66919,0.03583 -5.35529,-0.0583 -8.06056,-0.0583z"/></g></g></svg>